<svg width="24" height="24" viewBox="0 0 24 24" fill="none" xmlns="http://www.w3.org/2000/svg">
<path d="M16.3739 22C15.7283 22 15.0882 21.8859 14.4622 21.6585C11.7046 20.6567 9.14496 19.0251 7.05989 16.9401C4.97482 14.8551 3.34325 12.2954 2.34153 9.53774C2.01963 8.65152 1.92463 7.73672 2.05928 6.81863C2.18541 5.95867 2.51852 5.12382 3.02264 4.40432C3.52898 3.68165 4.20403 3.08058 4.97478 2.66611C5.7967 2.22413 6.69381 2 7.64128 2C7.93595 2 8.19063 2.20589 8.25238 2.494L9.23336 7.0719C9.27777 7.2792 9.21406 7.49489 9.06419 7.64481L7.38797 9.32099C8.96923 12.4648 11.5351 15.0307 14.6789 16.6119L16.3551 14.9357C16.505 14.7858 16.7207 14.7222 16.928 14.7665L21.5059 15.7475C21.7941 15.8093 21.9999 16.064 21.9999 16.3586C21.9999 17.3061 21.7758 18.2032 21.3338 19.0252C20.9193 19.7959 20.3182 20.471 19.5956 20.9773C18.8761 21.4814 18.0412 21.8145 17.1812 21.9407C16.9118 21.9802 16.6423 22 16.3739 22ZM7.14192 3.27729C5.89217 3.41525 4.78292 4.07031 4.04631 5.12163C3.21798 6.30381 3.02482 7.75785 3.51637 9.111C5.44222 14.4126 9.58741 18.5578 14.889 20.4836C16.2421 20.9752 17.6962 20.782 18.8784 19.9537C19.9297 19.2171 20.5847 18.1078 20.7227 16.8581L16.9986 16.06L15.248 17.8106C15.0618 17.9969 14.7787 18.0464 14.5404 17.9343C10.8222 16.1875 7.81244 13.1778 6.06564 9.45962C5.95365 9.22123 6.0031 8.93819 6.18938 8.75195L7.93994 7.0014L7.14192 3.27729Z" fill="black"/>
<path d="M21.3746 12.6246C21.0294 12.6246 20.7496 12.3447 20.7496 11.9996C20.7496 7.17502 16.8245 3.24995 12 3.24995C11.6548 3.24995 11.375 2.97012 11.375 2.62497C11.375 2.27983 11.6548 2 12 2C14.671 2 17.1821 3.04011 19.0708 4.92879C20.9595 6.81746 21.9996 9.32857 21.9996 11.9996C21.9996 12.3447 21.7198 12.6246 21.3746 12.6246Z" fill="black"/>
<path d="M18.8747 12.6247C18.5296 12.6247 18.2497 12.3448 18.2497 11.9997C18.2497 8.55359 15.4461 5.74995 12 5.74995C11.6548 5.74995 11.375 5.47012 11.375 5.12497C11.375 4.77983 11.6548 4.5 12 4.5C16.1353 4.5 19.4997 7.86436 19.4997 11.9997C19.4997 12.3448 19.2199 12.6247 18.8747 12.6247Z" fill="black"/>
<path d="M16.3748 12.6245C16.0297 12.6245 15.7498 12.3447 15.7498 11.9996C15.7498 9.93186 14.0677 8.24971 12 8.24971C11.6548 8.24971 11.375 7.96987 11.375 7.62473C11.375 7.27959 11.6548 6.99976 12 6.99976C14.7569 6.99976 16.9998 9.24263 16.9998 11.9996C16.9998 12.3447 16.72 12.6245 16.3748 12.6245Z" fill="black"/>
</svg>
