<svg width="24" height="24" viewBox="0 0 24 24" fill="none" xmlns="http://www.w3.org/2000/svg">
<path fill-rule="evenodd" clip-rule="evenodd" d="M2 10.8076C2 5.95121 5.95121 2 10.8076 2C15.6642 2 19.6152 5.95121 19.6152 10.8076C19.6152 12.9438 18.8508 14.9047 17.5812 16.4313L21.762 20.6121C22.0796 20.9295 22.0796 21.4444 21.762 21.7617C21.6032 21.9205 21.395 21.9999 21.1872 21.9999C20.9791 21.9999 20.7712 21.9205 20.6124 21.7617L16.4316 17.581C14.9049 18.8507 12.9439 19.6152 10.8076 19.6152C5.95121 19.6152 2 15.6642 2 10.8076ZM3.62602 10.8076C3.62602 14.7675 6.8477 17.9892 10.8076 17.9892C14.7675 17.9892 17.9891 14.7675 17.9891 10.8076C17.9891 6.8477 14.7675 3.62602 10.8076 3.62602C6.8477 3.62602 3.62602 6.84773 3.62602 10.8076Z" fill="#8300C1"/>
<path fill-rule="evenodd" clip-rule="evenodd" d="M2 10.8076C2 5.95121 5.95121 2 10.8076 2C15.6642 2 19.6152 5.95121 19.6152 10.8076C19.6152 12.9438 18.8508 14.9047 17.5812 16.4313L21.762 20.6121C22.0796 20.9295 22.0796 21.4444 21.762 21.7617C21.6032 21.9205 21.395 21.9999 21.1872 21.9999C20.9791 21.9999 20.7712 21.9205 20.6124 21.7617L16.4316 17.581C14.9049 18.8507 12.9439 19.6152 10.8076 19.6152C5.95121 19.6152 2 15.6642 2 10.8076ZM3.62602 10.8076C3.62602 14.7675 6.8477 17.9892 10.8076 17.9892C14.7675 17.9892 17.9891 14.7675 17.9891 10.8076C17.9891 6.8477 14.7675 3.62602 10.8076 3.62602C6.8477 3.62602 3.62602 6.84773 3.62602 10.8076Z" fill="url(#paint0_linear)"/>
<defs>
<linearGradient id="paint0_linear" x1="2" y1="12.0002" x2="22.0002" y2="12.0002" gradientUnits="userSpaceOnUse">
<stop stop-color="#C3148F"/>
<stop offset="1" stop-color="#712D8F"/>
</linearGradient>
</defs>
</svg>
