<svg width="60" height="60" viewBox="0 0 60 60" fill="none" xmlns="http://www.w3.org/2000/svg">
<path d="M46.8 36.9002C47.675 34.7752 48.15 32.5002 48.15 30.0002C48.15 28.2002 47.875 26.4752 47.4 24.8752C45.775 25.2502 44.075 25.4502 42.3 25.4502C38.6649 25.4541 35.0822 24.584 31.8538 22.9133C28.6255 21.2425 25.8461 18.8201 23.75 15.8502C21.5099 21.2771 17.2793 25.6418 11.925 28.0502C11.825 28.6752 11.825 29.3502 11.825 30.0002C11.825 32.387 12.2951 34.7504 13.2085 36.9555C14.1219 39.1606 15.4606 41.1642 17.1483 42.8519C20.5568 46.2604 25.1797 48.1752 30 48.1752C32.625 48.1752 35.15 47.6002 37.425 46.5752C38.85 49.3002 39.5 50.6502 39.45 50.6502C35.35 52.0252 32.175 52.7002 30 52.7002C23.95 52.7002 18.175 50.3252 13.925 46.0502C11.3376 43.475 9.41568 40.309 8.325 36.8252H5V25.4502H7.725C8.5506 21.4315 10.4487 17.7113 13.218 14.6842C15.9872 11.6572 19.5243 9.43625 23.4538 8.25713C27.3834 7.07801 31.5588 6.98466 35.5372 7.987C39.5155 8.98934 43.1483 11.05 46.05 13.9502C49.1995 17.0892 51.3482 21.0909 52.225 25.4502H55V36.8252H54.85L45.95 45.0002L32.7 43.5002V39.3252H44.775L46.8 36.9002ZM23.175 29.4252C23.925 29.4252 24.65 29.7252 25.175 30.2752C25.7026 30.8072 25.9987 31.526 25.9987 32.2752C25.9987 33.0244 25.7026 33.7433 25.175 34.2752C24.65 34.8002 23.925 35.1002 23.175 35.1002C21.6 35.1002 20.325 33.8502 20.325 32.2752C20.325 30.7002 21.6 29.4252 23.175 29.4252ZM36.8 29.4252C38.375 29.4252 39.625 30.7002 39.625 32.2752C39.625 33.8502 38.375 35.1002 36.8 35.1002C35.225 35.1002 33.95 33.8502 33.95 32.2752C33.95 31.5194 34.2503 30.7945 34.7847 30.26C35.3192 29.7255 36.0441 29.4252 36.8 29.4252Z" fill="#5E5E5E"/>
</svg>
