<svg width="24" height="24" viewBox="0 0 24 24" fill="none" xmlns="http://www.w3.org/2000/svg">
<path d="M12.2169 11.6341C13.5404 11.6341 14.6864 11.1594 15.6229 10.2228C16.5592 9.28639 17.0341 8.1406 17.0341 6.8169C17.0341 5.49366 16.5594 4.34772 15.6228 3.41098C14.6862 2.4747 13.5403 2 12.2169 2C10.8932 2 9.74738 2.4747 8.81095 3.41114C7.87451 4.34757 7.39966 5.49351 7.39966 6.8169C7.39966 8.1406 7.87451 9.28654 8.81095 10.223C9.74768 11.1593 10.8936 11.6341 12.2169 11.6341ZM9.6398 4.23984C10.3583 3.5213 11.2012 3.17203 12.2169 3.17203C13.2323 3.17203 14.0754 3.5213 14.7941 4.23984C15.5126 4.95853 15.862 5.80158 15.862 6.8169C15.862 7.83253 15.5126 8.67543 14.7941 9.39412C14.0754 10.1128 13.2323 10.4621 12.2169 10.4621C11.2015 10.4621 10.3586 10.1127 9.6398 9.39412C8.92111 8.67558 8.57169 7.83253 8.57169 6.8169C8.57169 5.80158 8.92111 4.95853 9.6398 4.23984Z" fill="white"/>
<path d="M20.6457 17.379C20.6187 16.9893 20.5641 16.5642 20.4836 16.1153C20.4025 15.663 20.2979 15.2354 20.1728 14.8447C20.0434 14.4408 19.8678 14.0419 19.6504 13.6597C19.425 13.2629 19.1601 12.9175 18.8628 12.6332C18.552 12.3358 18.1715 12.0967 17.7314 11.9223C17.2929 11.7488 16.8069 11.6609 16.287 11.6609C16.0828 11.6609 15.8854 11.7447 15.5041 11.993C15.2694 12.146 14.9949 12.323 14.6885 12.5188C14.4265 12.6857 14.0716 12.8421 13.6332 12.9837C13.2055 13.1221 12.7712 13.1923 12.3425 13.1923C11.914 13.1923 11.4797 13.1221 11.0517 12.9837C10.6138 12.8423 10.2587 12.6859 9.99717 12.5189C9.69367 12.325 9.41901 12.148 9.18083 11.9928C8.79981 11.7445 8.60236 11.6608 8.3982 11.6608C7.87818 11.6608 7.39234 11.7488 6.95395 11.9225C6.51419 12.0966 6.13349 12.3357 5.82236 12.6334C5.52512 12.9178 5.26023 13.2631 5.03501 13.6597C4.81787 14.0419 4.64209 14.4406 4.5127 14.8448C4.38773 15.2356 4.2832 15.663 4.20203 16.1153C4.12146 16.5636 4.06699 16.9888 4.03998 17.3795C4.01343 17.7614 4 18.1589 4 18.5605C4 19.6045 4.33188 20.4497 4.98633 21.073C5.63269 21.6881 6.4878 22 7.52799 22H17.1581C18.198 22 19.0531 21.6881 19.6996 21.073C20.3542 20.4501 20.6861 19.6047 20.6861 18.5603C20.686 18.1574 20.6724 17.7599 20.6457 17.379ZM18.8915 20.2239C18.4644 20.6304 17.8974 20.828 17.158 20.828H7.52799C6.7884 20.828 6.22138 20.6304 5.79444 20.224C5.37558 19.8253 5.17203 19.281 5.17203 18.5605C5.17203 18.1857 5.18439 17.8157 5.20911 17.4605C5.23322 17.112 5.2825 16.7291 5.35559 16.3223C5.42777 15.9206 5.51963 15.5435 5.62888 15.2022C5.73371 14.8749 5.87668 14.5508 6.05399 14.2386C6.22321 13.941 6.41791 13.6858 6.63276 13.4801C6.83371 13.2877 7.08701 13.1302 7.38547 13.0121C7.6615 12.9028 7.97172 12.843 8.30848 12.834C8.34952 12.8558 8.42261 12.8975 8.54102 12.9747C8.78196 13.1317 9.05967 13.3109 9.36668 13.5069C9.71275 13.7276 10.1586 13.9269 10.6913 14.0988C11.2359 14.2749 11.7913 14.3643 12.3426 14.3643C12.8939 14.3643 13.4495 14.2749 13.9938 14.099C14.5269 13.9267 14.9726 13.7276 15.3191 13.5066C15.6333 13.3058 15.9032 13.1319 16.1442 12.9747C16.2626 12.8976 16.3357 12.8558 16.3767 12.834C16.7136 12.843 17.0239 12.9028 17.3 13.0121C17.5983 13.1302 17.8516 13.2878 18.0526 13.4801C18.2674 13.6856 18.4622 13.9409 18.6314 14.2387C18.8088 14.5508 18.952 14.875 19.0566 15.202C19.166 15.5438 19.2581 15.9207 19.3301 16.3222C19.403 16.7297 19.4524 17.1127 19.4766 17.4606V17.4609C19.5014 17.8148 19.5139 18.1847 19.5141 18.5605C19.5139 19.2812 19.3104 19.8253 18.8915 20.2239Z" fill="white"/>
</svg>
