<svg width="24" height="24" viewBox="0 0 24 24" fill="none" xmlns="http://www.w3.org/2000/svg">
<path d="M7.73254 15.0627H7.73364C7.73456 15.0627 7.73547 15.0625 7.73639 15.0625H20.4844C20.7982 15.0625 21.0742 14.8543 21.1604 14.5526L23.9729 4.7088C24.0335 4.49658 23.991 4.26843 23.8583 4.09229C23.7253 3.91614 23.5175 3.8125 23.2969 3.8125H6.11096L5.60834 1.5506C5.53674 1.22888 5.25146 1 4.92188 1H0.703125C0.314758 1 0 1.31476 0 1.70312C0 2.09149 0.314758 2.40625 0.703125 2.40625H4.35791C4.4469 2.80707 6.76318 13.2305 6.89648 13.8302C6.14923 14.155 5.625 14.9001 5.625 15.7656C5.625 16.9287 6.57129 17.875 7.73438 17.875H20.4844C20.8727 17.875 21.1875 17.5602 21.1875 17.1719C21.1875 16.7835 20.8727 16.4688 20.4844 16.4688H7.73438C7.34674 16.4688 7.03125 16.1533 7.03125 15.7656C7.03125 15.3785 7.34564 15.0636 7.73254 15.0627ZM22.3647 5.21875L19.9539 13.6562H8.29834L6.42334 5.21875H22.3647Z" fill="black"/>
<path d="M7.03125 19.9844C7.03125 21.1475 7.97754 22.0938 9.14062 22.0938C10.3037 22.0938 11.25 21.1475 11.25 19.9844C11.25 18.8213 10.3037 17.875 9.14062 17.875C7.97754 17.875 7.03125 18.8213 7.03125 19.9844ZM9.14062 19.2812C9.52826 19.2812 9.84375 19.5967 9.84375 19.9844C9.84375 20.372 9.52826 20.6875 9.14062 20.6875C8.75299 20.6875 8.4375 20.372 8.4375 19.9844C8.4375 19.5967 8.75299 19.2812 9.14062 19.2812Z" fill="black"/>
<path d="M16.9688 19.9844C16.9688 21.1475 17.915 22.0938 19.0781 22.0938C20.2412 22.0938 21.1875 21.1475 21.1875 19.9844C21.1875 18.8213 20.2412 17.875 19.0781 17.875C17.915 17.875 16.9688 18.8213 16.9688 19.9844ZM19.0781 19.2812C19.4658 19.2812 19.7812 19.5967 19.7812 19.9844C19.7812 20.372 19.4658 20.6875 19.0781 20.6875C18.6905 20.6875 18.375 20.372 18.375 19.9844C18.375 19.5967 18.6905 19.2812 19.0781 19.2812Z" fill="black"/>
</svg>
