<svg width="24" height="24" viewBox="0 0 24 24" fill="none" xmlns="http://www.w3.org/2000/svg">
<path d="M20.3644 4.74705C19.33 3.63513 17.8804 3.00246 16.3617 3.00012C14.8417 3.00188 13.3906 3.63421 12.3546 4.74634L12.0015 5.11946L11.6484 4.74634C9.59251 2.53368 6.13215 2.40661 3.91953 4.46246C3.82148 4.5536 3.72679 4.64825 3.63565 4.74634C1.45478 7.09867 1.45478 10.7341 3.63565 13.0864L11.4826 21.3615C11.754 21.6481 12.2064 21.6604 12.493 21.3889C12.5024 21.38 12.5115 21.3709 12.5204 21.3615L20.3645 13.0864C22.5452 10.7344 22.5452 7.09913 20.3644 4.74705ZM19.3302 12.1022L12.0015 19.8311L4.67282 12.1022C3.00676 10.3048 3.00676 7.52729 4.67282 5.72989C6.1858 4.09005 8.74172 3.98723 10.3816 5.50021C10.4612 5.57367 10.5378 5.65027 10.6112 5.72989L11.4826 6.64911C11.7697 6.93441 12.2333 6.93441 12.5204 6.64911L13.3917 5.7306C14.9047 4.09076 17.4606 3.98794 19.1005 5.50092C19.1801 5.57438 19.2567 5.65099 19.3302 5.7306C21.0107 7.53085 21.023 10.3134 19.3302 12.1022Z" fill="white"/>
</svg>
